<?xml version="1.0" encoding="UTF-8"?>
<svg id="Capa_1" xmlns="http://www.w3.org/2000/svg" version="1.1" viewBox="0 0 300 300">
  <!-- Generator: Adobe Illustrator 30.1.0, SVG Export Plug-In . SVG Version: 2.1.1 Build 136)  -->
  <defs>
    <style>
      .st0 {
        fill: #0f4122;
      }

      .st1 {
        fill: #f6b336;
      }
    </style>
  </defs>
  <rect class="st0" x="-2.2" y="-1.7" width="303.8" height="305.1"/>
  <g>
    <path class="st1" d="M166.6,66.9c-22.5,0-36,14.4-36,38.5s8.4,25.9,24.9,25.9,36.3-14.8,36.3-39.5-8.5-24.9-25.2-24.9ZM167.1,119.9c-6.2,0-9.4-3.3-9.4-9.8s5.1-14.6,13.6-14.6,9.5,3.2,9.5,9.4c0,9.4-5.1,14.9-13.7,14.9Z"/>
    <path class="st1" d="M206.3,138.8c-27,0-43.2,17.3-43.2,46.3s10.1,31,29.9,31,43.5-17.7,43.5-47.4-10.2-29.8-30.3-29.8ZM207,202.4c-7.5,0-11.3-3.9-11.3-11.7s6.1-17.5,16.3-17.5,11.4,3.8,11.4,11.3c0,11.2-6.1,17.9-16.4,17.9Z"/>
    <path class="st1" d="M105.2,152.5c-30.7,0-49,19.6-49,52.6s11.4,35.3,34,35.3,49.5-20.1,49.5-53.9-11.6-33.9-34.4-33.9ZM106,224.7c-8.5,0-12.8-4.5-12.8-13.3s6.9-19.9,18.5-19.9,13,4.3,13,12.8c0,12.8-7,20.4-18.7,20.4Z"/>
  </g>
</svg>